<?xml version="1.0" encoding="utf-8"?><svg width="auto" height="7020" style="overflow:visible " version="1.1" xmlns="http://www.w3.org/2000/svg"><rect x="20" y="20" width="200" height="40" style="fill:white;stroke:black;stroke-width:1" /><text x="30" y="30" font-size="10" style="fill:blue">rutas</text><rect x="240" y="20" width="200" height="40" style="fill:white;stroke:black;stroke-width:1" /><text x="250" y="30" font-size="10" style="fill:blue">ruta</text><path d="M220 40 C240 40 220 40 240 40" style="fill:transparent;stroke:black" /><text x="250" y="40" font-size="8" style="fill:black">nombre: Parque Nacional de Gauja</text><text x="250" y="50" font-size="8" style="fill:black">tipo: Senderismo</text><rect x="460" y="20" width="200" height="40" style="fill:white;stroke:black;stroke-width:1" /><text x="470" y="30" font-size="10" style="fill:blue">fechaInicio</text><path d="M440 40 C460 40 440 40 460 40" style="fill:transparent;stroke:black" /><rect x="526" y="20" width="137" height="40" style="fill:green;stroke:black;stroke-width:1" /><text x="536" y="30" font-size="8" style="fill:white">12-04-2023</text><rect x="460" y="70" width="200" height="40" style="fill:white;stroke:black;stroke-width:1" /><text x="470" y="80" font-size="10" style="fill:blue">horaInicio</text><path d="M440 40 C460 40 440 90 460 90" style="fill:transparent;stroke:black" /><rect x="526" y="70" width="137" height="40" style="fill:green;stroke:black;stroke-width:1" /><text x="536" y="80" font-size="8" style="fill:white">12-04-2023</text><rect x="460" y="120" width="200" height="40" style="fill:white;stroke:black;stroke-width:1" /><text x="470" y="130" font-size="10" style="fill:blue">duracion</text><path d="M440 40 C460 40 440 140 460 140" style="fill:transparent;stroke:black" /><rect x="526" y="120" width="137" height="40" style="fill:green;stroke:black;stroke-width:1" /><text x="536" y="130" font-size="8" style="fill:white">1h 57min</text><rect x="460" y="170" width="200" height="40" style="fill:white;stroke:black;stroke-width:1" /><text x="470" y="180" font-size="10" style="fill:blue">agencia</text><path d="M440 40 C460 40 440 190 460 190" style="fill:transparent;stroke:black" /><rect x="526" y="170" width="137" height="40" style="fill:green;stroke:black;stroke-width:1" /><text x="536" y="180" font-size="8" style="fill:white">AllTrais</text><rect x="460" y="220" width="200" height="40" style="fill:white;stroke:black;stroke-width:1" /><text x="470" y="230" font-size="10" style="fill:blue">descripcion</text><path d="M440 40 C460 40 440 240 460 240" style="fill:transparent;stroke:black" /><rect x="526" y="220" width="137" height="40" style="fill:green;stroke:black;stroke-width:1" /><text x="536" y="230" font-size="8" style="fill:white"> Ruta circular de 6,6-km cerca de Municipalidad de Sigulda, Vidzeme. Por lo general, se considera una ruta moderada, que se tarda una media de 1 h 57 min en recorrer. 
	Es una región muy popular para disfrutar de la observación de aves, el senderismo y pasear.</text><rect x="460" y="270" width="200" height="40" style="fill:white;stroke:black;stroke-width:1" /><text x="470" y="280" font-size="10" style="fill:blue">personas</text><path d="M440 40 C460 40 440 290 460 290" style="fill:transparent;stroke:black" /><rect x="526" y="270" width="137" height="40" style="fill:green;stroke:black;stroke-width:1" /><text x="536" y="280" font-size="8" style="fill:white">Todo tipo</text><rect x="460" y="320" width="200" height="40" style="fill:white;stroke:black;stroke-width:1" /><text x="470" y="330" font-size="10" style="fill:blue">lugarInicio</text><path d="M440 40 C460 40 440 340 460 340" style="fill:transparent;stroke:black" /><rect x="526" y="320" width="137" height="40" style="fill:green;stroke:black;stroke-width:1" /><text x="536" y="330" font-size="8" style="fill:white">Ribera del río Gauja</text><rect x="460" y="370" width="200" height="40" style="fill:white;stroke:black;stroke-width:1" /><text x="470" y="380" font-size="10" style="fill:blue">direccionInicio</text><path d="M440 40 C460 40 440 390 460 390" style="fill:transparent;stroke:black" /><rect x="526" y="370" width="137" height="40" style="fill:green;stroke:black;stroke-width:1" /><text x="536" y="380" font-size="8" style="fill:white">3A - 22 Leona Paegles iela, Sigulda Sigulda 2150</text><rect x="460" y="420" width="200" height="40" style="fill:white;stroke:black;stroke-width:1" /><text x="470" y="430" font-size="10" style="fill:blue">coordenadas</text><path d="M440 40 C460 40 440 440 460 440" style="fill:transparent;stroke:black" /><rect x="680" y="420" width="200" height="40" style="fill:white;stroke:black;stroke-width:1" /><text x="690" y="430" font-size="10" style="fill:blue">longitud</text><path d="M660 440 C680 440 660 440 680 440" style="fill:transparent;stroke:black" /><rect x="746" y="420" width="137" height="40" style="fill:green;stroke:black;stroke-width:1" /><text x="756" y="430" font-size="8" style="fill:white">57,1607</text><rect x="680" y="470" width="200" height="40" style="fill:white;stroke:black;stroke-width:1" /><text x="690" y="480" font-size="10" style="fill:blue">latitud</text><path d="M660 440 C680 440 660 490 680 490" style="fill:transparent;stroke:black" /><rect x="746" y="470" width="137" height="40" style="fill:green;stroke:black;stroke-width:1" /><text x="756" y="480" font-size="8" style="fill:white">24,844</text><rect x="680" y="520" width="200" height="40" style="fill:white;stroke:black;stroke-width:1" /><text x="690" y="530" font-size="10" style="fill:blue">altitud</text><path d="M660 440 C680 440 660 540 680 540" style="fill:transparent;stroke:black" /><rect x="460" y="620" width="200" height="40" style="fill:white;stroke:black;stroke-width:1" /><text x="470" y="630" font-size="10" style="fill:blue">referencias</text><path d="M440 40 C460 40 440 640 460 640" style="fill:transparent;stroke:black" /><rect x="680" y="620" width="200" height="40" style="fill:white;stroke:black;stroke-width:1" /><text x="690" y="630" font-size="10" style="fill:blue">referencia</text><path d="M660 640 C680 640 660 640 680 640" style="fill:transparent;stroke:black" /><rect x="746" y="620" width="137" height="40" style="fill:green;stroke:black;stroke-width:1" /><text x="756" y="630" font-size="8" style="fill:white">https://www.alltrails.com/es/explore/trail/latvia/vidzeme/gauja-river-gitmans-cave-sigulda-loop?mobileMap=false</text><rect x="680" y="670" width="200" height="40" style="fill:white;stroke:black;stroke-width:1" /><text x="690" y="680" font-size="10" style="fill:blue">referencia</text><path d="M660 640 C680 640 660 690 680 690" style="fill:transparent;stroke:black" /><rect x="746" y="670" width="137" height="40" style="fill:green;stroke:black;stroke-width:1" /><text x="756" y="680" font-size="8" style="fill:white">https://www.alltrails.com/es/explore/trail/latvia/vidzeme/sigulda-velnalas-klintis?mobileMap=false</text><rect x="460" y="770" width="200" height="40" style="fill:white;stroke:black;stroke-width:1" /><text x="470" y="780" font-size="10" style="fill:blue">recomendacion</text><path d="M440 40 C460 40 440 790 460 790" style="fill:transparent;stroke:black" /><rect x="526" y="770" width="137" height="40" style="fill:green;stroke:black;stroke-width:1" /><text x="536" y="780" font-size="8" style="fill:white">8</text><rect x="460" y="820" width="200" height="40" style="fill:white;stroke:black;stroke-width:1" /><text x="470" y="830" font-size="10" style="fill:blue">hito</text><path d="M440 40 C460 40 440 840 460 840" style="fill:transparent;stroke:black" /><text x="470" y="840" font-size="8" style="fill:black">nombre: Acantilados de Velnalas</text><rect x="680" y="820" width="200" height="40" style="fill:white;stroke:black;stroke-width:1" /><text x="690" y="830" font-size="10" style="fill:blue">descripcion</text><path d="M660 840 C680 840 660 840 680 840" style="fill:transparent;stroke:black" /><rect x="746" y="820" width="137" height="40" style="fill:green;stroke:black;stroke-width:1" /><text x="756" y="830" font-size="8" style="fill:white">Uno de los acantilados de arenisca más notables de Letonia.</text><rect x="680" y="870" width="200" height="40" style="fill:white;stroke:black;stroke-width:1" /><text x="690" y="880" font-size="10" style="fill:blue">coordenadas</text><path d="M660 840 C680 840 660 890 680 890" style="fill:transparent;stroke:black" /><rect x="900" y="870" width="200" height="40" style="fill:white;stroke:black;stroke-width:1" /><text x="910" y="880" font-size="10" style="fill:blue">longitud</text><path d="M880 890 C900 890 880 890 900 890" style="fill:transparent;stroke:black" /><rect x="966" y="870" width="137" height="40" style="fill:green;stroke:black;stroke-width:1" /><text x="976" y="880" font-size="8" style="fill:white">57,2500</text><rect x="900" y="920" width="200" height="40" style="fill:white;stroke:black;stroke-width:1" /><text x="910" y="930" font-size="10" style="fill:blue">latitud</text><path d="M880 890 C900 890 880 940 900 940" style="fill:transparent;stroke:black" /><rect x="966" y="920" width="137" height="40" style="fill:green;stroke:black;stroke-width:1" /><text x="976" y="930" font-size="8" style="fill:white">25,2500</text><rect x="900" y="970" width="200" height="40" style="fill:white;stroke:black;stroke-width:1" /><text x="910" y="980" font-size="10" style="fill:blue">altitud</text><path d="M880 890 C900 890 880 990 900 990" style="fill:transparent;stroke:black" /><rect x="680" y="1070" width="200" height="40" style="fill:white;stroke:black;stroke-width:1" /><text x="690" y="1080" font-size="10" style="fill:blue">fotos</text><path d="M660 840 C680 840 660 1090 680 1090" style="fill:transparent;stroke:black" /><rect x="900" y="1070" width="200" height="40" style="fill:white;stroke:black;stroke-width:1" /><text x="910" y="1080" font-size="10" style="fill:blue">foto</text><path d="M880 1090 C900 1090 880 1090 900 1090" style="fill:transparent;stroke:black" /><rect x="680" y="1170" width="200" height="40" style="fill:white;stroke:black;stroke-width:1" /><text x="690" y="1180" font-size="10" style="fill:blue">videos</text><path d="M660 840 C680 840 660 1190 680 1190" style="fill:transparent;stroke:black" /><rect x="900" y="1170" width="200" height="40" style="fill:white;stroke:black;stroke-width:1" /><text x="910" y="1180" font-size="10" style="fill:blue">video</text><path d="M880 1190 C900 1190 880 1190 900 1190" style="fill:transparent;stroke:black" /><rect x="460" y="1320" width="200" height="40" style="fill:white;stroke:black;stroke-width:1" /><text x="470" y="1330" font-size="10" style="fill:blue">hito</text><path d="M440 40 C460 40 440 1340 460 1340" style="fill:transparent;stroke:black" /><text x="470" y="1340" font-size="8" style="fill:black">nombre: Castillo Medieval en Sigulda</text><rect x="680" y="1320" width="200" height="40" style="fill:white;stroke:black;stroke-width:1" /><text x="690" y="1330" font-size="10" style="fill:blue">descripcion</text><path d="M660 1340 C680 1340 660 1340 680 1340" style="fill:transparent;stroke:black" /><rect x="746" y="1320" width="137" height="40" style="fill:green;stroke:black;stroke-width:1" /><text x="756" y="1330" font-size="8" style="fill:white">Construido por los Hermanos de la Espada de Livonia, que más tarde se incorporaron a la Orden Teutónica del castillo, 
			por lo que el castillo finalmente pasó a ser propiedad de la Orden de Livonia.</text><rect x="680" y="1370" width="200" height="40" style="fill:white;stroke:black;stroke-width:1" /><text x="690" y="1380" font-size="10" style="fill:blue">coordenadas</text><path d="M660 1340 C680 1340 660 1390 680 1390" style="fill:transparent;stroke:black" /><rect x="900" y="1370" width="200" height="40" style="fill:white;stroke:black;stroke-width:1" /><text x="910" y="1380" font-size="10" style="fill:blue">longitud</text><path d="M880 1390 C900 1390 880 1390 900 1390" style="fill:transparent;stroke:black" /><rect x="966" y="1370" width="137" height="40" style="fill:green;stroke:black;stroke-width:1" /><text x="976" y="1380" font-size="8" style="fill:white">57,95922</text><rect x="900" y="1420" width="200" height="40" style="fill:white;stroke:black;stroke-width:1" /><text x="910" y="1430" font-size="10" style="fill:blue">latitud</text><path d="M880 1390 C900 1390 880 1440 900 1440" style="fill:transparent;stroke:black" /><rect x="966" y="1420" width="137" height="40" style="fill:green;stroke:black;stroke-width:1" /><text x="976" y="1430" font-size="8" style="fill:white">24,505849</text><rect x="900" y="1470" width="200" height="40" style="fill:white;stroke:black;stroke-width:1" /><text x="910" y="1480" font-size="10" style="fill:blue">altitud</text><path d="M880 1390 C900 1390 880 1490 900 1490" style="fill:transparent;stroke:black" /><rect x="680" y="1570" width="200" height="40" style="fill:white;stroke:black;stroke-width:1" /><text x="690" y="1580" font-size="10" style="fill:blue">fotos</text><path d="M660 1340 C680 1340 660 1590 680 1590" style="fill:transparent;stroke:black" /><rect x="900" y="1570" width="200" height="40" style="fill:white;stroke:black;stroke-width:1" /><text x="910" y="1580" font-size="10" style="fill:blue">foto</text><path d="M880 1590 C900 1590 880 1590 900 1590" style="fill:transparent;stroke:black" /><rect x="680" y="1670" width="200" height="40" style="fill:white;stroke:black;stroke-width:1" /><text x="690" y="1680" font-size="10" style="fill:blue">videos</text><path d="M660 1340 C680 1340 660 1690 680 1690" style="fill:transparent;stroke:black" /><rect x="900" y="1670" width="200" height="40" style="fill:white;stroke:black;stroke-width:1" /><text x="910" y="1680" font-size="10" style="fill:blue">video</text><path d="M880 1690 C900 1690 880 1690 900 1690" style="fill:transparent;stroke:black" /><rect x="460" y="1820" width="200" height="40" style="fill:white;stroke:black;stroke-width:1" /><text x="470" y="1830" font-size="10" style="fill:blue">hito</text><path d="M440 40 C460 40 440 1840 460 1840" style="fill:transparent;stroke:black" /><text x="470" y="1840" font-size="8" style="fill:black">nombre: Cueva de Gutmanis</text><rect x="680" y="1820" width="200" height="40" style="fill:white;stroke:black;stroke-width:1" /><text x="690" y="1830" font-size="10" style="fill:blue">descripcion</text><path d="M660 1840 C680 1840 660 1840 680 1840" style="fill:transparent;stroke:black" /><rect x="746" y="1820" width="137" height="40" style="fill:green;stroke:black;stroke-width:1" /><text x="756" y="1830" font-size="8" style="fill:white">Es la cueva más profunda en los países bálticos</text><rect x="680" y="1870" width="200" height="40" style="fill:white;stroke:black;stroke-width:1" /><text x="690" y="1880" font-size="10" style="fill:blue">coordenadas</text><path d="M660 1840 C680 1840 660 1890 680 1890" style="fill:transparent;stroke:black" /><rect x="900" y="1870" width="200" height="40" style="fill:white;stroke:black;stroke-width:1" /><text x="910" y="1880" font-size="10" style="fill:blue">longitud</text><path d="M880 1890 C900 1890 880 1890 900 1890" style="fill:transparent;stroke:black" /><rect x="966" y="1870" width="137" height="40" style="fill:green;stroke:black;stroke-width:1" /><text x="976" y="1880" font-size="8" style="fill:white">﻿57.176307765987</text><rect x="900" y="1920" width="200" height="40" style="fill:white;stroke:black;stroke-width:1" /><text x="910" y="1930" font-size="10" style="fill:blue">latitud</text><path d="M880 1890 C900 1890 880 1940 900 1940" style="fill:transparent;stroke:black" /><rect x="966" y="1920" width="137" height="40" style="fill:green;stroke:black;stroke-width:1" /><text x="976" y="1930" font-size="8" style="fill:white">24.842310395105</text><rect x="900" y="1970" width="200" height="40" style="fill:white;stroke:black;stroke-width:1" /><text x="910" y="1980" font-size="10" style="fill:blue">altitud</text><path d="M880 1890 C900 1890 880 1990 900 1990" style="fill:transparent;stroke:black" /><rect x="680" y="2070" width="200" height="40" style="fill:white;stroke:black;stroke-width:1" /><text x="690" y="2080" font-size="10" style="fill:blue">fotos</text><path d="M660 1840 C680 1840 660 2090 680 2090" style="fill:transparent;stroke:black" /><rect x="900" y="2070" width="200" height="40" style="fill:white;stroke:black;stroke-width:1" /><text x="910" y="2080" font-size="10" style="fill:blue">foto</text><path d="M880 2090 C900 2090 880 2090 900 2090" style="fill:transparent;stroke:black" /><rect x="680" y="2170" width="200" height="40" style="fill:white;stroke:black;stroke-width:1" /><text x="690" y="2180" font-size="10" style="fill:blue">videos</text><path d="M660 1840 C680 1840 660 2190 680 2190" style="fill:transparent;stroke:black" /><rect x="900" y="2170" width="200" height="40" style="fill:white;stroke:black;stroke-width:1" /><text x="910" y="2180" font-size="10" style="fill:blue">video</text><path d="M880 2190 C900 2190 880 2190 900 2190" style="fill:transparent;stroke:black" /><rect x="240" y="2370" width="200" height="40" style="fill:white;stroke:black;stroke-width:1" /><text x="250" y="2380" font-size="10" style="fill:blue">ruta</text><path d="M220 40 C240 40 220 2390 240 2390" style="fill:transparent;stroke:black" /><text x="250" y="2390" font-size="8" style="fill:black">nombre: Paseo en bici por el casco antiguo de Riga</text><text x="250" y="2400" font-size="8" style="fill:black">tipo: Bicicleta</text><rect x="460" y="2370" width="200" height="40" style="fill:white;stroke:black;stroke-width:1" /><text x="470" y="2380" font-size="10" style="fill:blue">fechaInicio</text><path d="M440 2390 C460 2390 440 2390 460 2390" style="fill:transparent;stroke:black" /><rect x="526" y="2370" width="137" height="40" style="fill:green;stroke:black;stroke-width:1" /><text x="536" y="2380" font-size="8" style="fill:white">07-06-2023</text><rect x="460" y="2420" width="200" height="40" style="fill:white;stroke:black;stroke-width:1" /><text x="470" y="2430" font-size="10" style="fill:blue">horaInicio</text><path d="M440 2390 C460 2390 440 2440 460 2440" style="fill:transparent;stroke:black" /><rect x="526" y="2420" width="137" height="40" style="fill:green;stroke:black;stroke-width:1" /><text x="536" y="2430" font-size="8" style="fill:white">10:00</text><rect x="460" y="2470" width="200" height="40" style="fill:white;stroke:black;stroke-width:1" /><text x="470" y="2480" font-size="10" style="fill:blue">duracion</text><path d="M440 2390 C460 2390 440 2490 460 2490" style="fill:transparent;stroke:black" /><rect x="526" y="2470" width="137" height="40" style="fill:green;stroke:black;stroke-width:1" /><text x="536" y="2480" font-size="8" style="fill:white">04h 50min</text><rect x="460" y="2520" width="200" height="40" style="fill:white;stroke:black;stroke-width:1" /><text x="470" y="2530" font-size="10" style="fill:blue">agencia</text><path d="M440 2390 C460 2390 440 2540 460 2540" style="fill:transparent;stroke:black" /><rect x="526" y="2520" width="137" height="40" style="fill:green;stroke:black;stroke-width:1" /><text x="536" y="2530" font-size="8" style="fill:white">Koomot</text><rect x="460" y="2570" width="200" height="40" style="fill:white;stroke:black;stroke-width:1" /><text x="470" y="2580" font-size="10" style="fill:blue">descripcion</text><path d="M440 2390 C460 2390 440 2590 460 2590" style="fill:transparent;stroke:black" /><rect x="526" y="2570" width="137" height="40" style="fill:green;stroke:black;stroke-width:1" /><text x="536" y="2580" font-size="8" style="fill:white"> Paseo en bici por el hermoso casco antiguo y enclave natural desde Vagonu a Riga.</text><rect x="460" y="2620" width="200" height="40" style="fill:white;stroke:black;stroke-width:1" /><text x="470" y="2630" font-size="10" style="fill:blue">personas</text><path d="M440 2390 C460 2390 440 2640 460 2640" style="fill:transparent;stroke:black" /><rect x="526" y="2620" width="137" height="40" style="fill:green;stroke:black;stroke-width:1" /><text x="536" y="2630" font-size="8" style="fill:white">Buena forma física. Que sepan andar bien en bici.</text><rect x="460" y="2670" width="200" height="40" style="fill:white;stroke:black;stroke-width:1" /><text x="470" y="2680" font-size="10" style="fill:blue">lugarInicio</text><path d="M440 2390 C460 2390 440 2690 460 2690" style="fill:transparent;stroke:black" /><rect x="526" y="2670" width="137" height="40" style="fill:green;stroke:black;stroke-width:1" /><text x="536" y="2680" font-size="8" style="fill:white">Estación de tren de Vagonu</text><rect x="460" y="2720" width="200" height="40" style="fill:white;stroke:black;stroke-width:1" /><text x="470" y="2730" font-size="10" style="fill:blue">direccionInicio</text><path d="M440 2390 C460 2390 440 2740 460 2740" style="fill:transparent;stroke:black" /><rect x="526" y="2720" width="137" height="40" style="fill:green;stroke:black;stroke-width:1" /><text x="536" y="2730" font-size="8" style="fill:white">Vagonu parks, Dzelzceļa stacija, Mazā Matīsa iela 2, Latgales priekšpilsēta, Rīga, LV-1009, Letonia</text><rect x="460" y="2770" width="200" height="40" style="fill:white;stroke:black;stroke-width:1" /><text x="470" y="2780" font-size="10" style="fill:blue">coordenadas</text><path d="M440 2390 C460 2390 440 2790 460 2790" style="fill:transparent;stroke:black" /><rect x="680" y="2770" width="200" height="40" style="fill:white;stroke:black;stroke-width:1" /><text x="690" y="2780" font-size="10" style="fill:blue">longitud</text><path d="M660 2790 C680 2790 660 2790 680 2790" style="fill:transparent;stroke:black" /><rect x="746" y="2770" width="137" height="40" style="fill:green;stroke:black;stroke-width:1" /><text x="756" y="2780" font-size="8" style="fill:white">56.94448826737883</text><rect x="680" y="2820" width="200" height="40" style="fill:white;stroke:black;stroke-width:1" /><text x="690" y="2830" font-size="10" style="fill:blue">latitud</text><path d="M660 2790 C680 2790 660 2840 680 2840" style="fill:transparent;stroke:black" /><rect x="746" y="2820" width="137" height="40" style="fill:green;stroke:black;stroke-width:1" /><text x="756" y="2830" font-size="8" style="fill:white">24.1562069865055</text><rect x="680" y="2870" width="200" height="40" style="fill:white;stroke:black;stroke-width:1" /><text x="690" y="2880" font-size="10" style="fill:blue">altitud</text><path d="M660 2790 C680 2790 660 2890 680 2890" style="fill:transparent;stroke:black" /><rect x="460" y="2970" width="200" height="40" style="fill:white;stroke:black;stroke-width:1" /><text x="470" y="2980" font-size="10" style="fill:blue">referencias</text><path d="M440 2390 C460 2390 440 2990 460 2990" style="fill:transparent;stroke:black" /><rect x="680" y="2970" width="200" height="40" style="fill:white;stroke:black;stroke-width:1" /><text x="690" y="2980" font-size="10" style="fill:blue">referencia</text><path d="M660 2990 C680 2990 660 2990 680 2990" style="fill:transparent;stroke:black" /><rect x="746" y="2970" width="137" height="40" style="fill:green;stroke:black;stroke-width:1" /><text x="756" y="2980" font-size="8" style="fill:white">https://www.komoot.com/es-es/smarttour/16984266</text><rect x="460" y="3070" width="200" height="40" style="fill:white;stroke:black;stroke-width:1" /><text x="470" y="3080" font-size="10" style="fill:blue">recomendacion</text><path d="M440 2390 C460 2390 440 3090 460 3090" style="fill:transparent;stroke:black" /><rect x="526" y="3070" width="137" height="40" style="fill:green;stroke:black;stroke-width:1" /><text x="536" y="3080" font-size="8" style="fill:white">7</text><rect x="460" y="3120" width="200" height="40" style="fill:white;stroke:black;stroke-width:1" /><text x="470" y="3130" font-size="10" style="fill:blue">hito</text><path d="M440 2390 C460 2390 440 3140 460 3140" style="fill:transparent;stroke:black" /><text x="470" y="3140" font-size="8" style="fill:black">nombre: Monumento a la Libertad (Brīvības piemineklis)</text><rect x="680" y="3120" width="200" height="40" style="fill:white;stroke:black;stroke-width:1" /><text x="690" y="3130" font-size="10" style="fill:blue">descripcion</text><path d="M660 3140 C680 3140 660 3140 680 3140" style="fill:transparent;stroke:black" /><rect x="746" y="3120" width="137" height="40" style="fill:green;stroke:black;stroke-width:1" /><text x="756" y="3130" font-size="8" style="fill:white">Monumento construido en honor a los soldados que murieron durante la Guerra de Independencia de Letonia.</text><rect x="680" y="3170" width="200" height="40" style="fill:white;stroke:black;stroke-width:1" /><text x="690" y="3180" font-size="10" style="fill:blue">coordenadas</text><path d="M660 3140 C680 3140 660 3190 680 3190" style="fill:transparent;stroke:black" /><rect x="900" y="3170" width="200" height="40" style="fill:white;stroke:black;stroke-width:1" /><text x="910" y="3180" font-size="10" style="fill:blue">longitud</text><path d="M880 3190 C900 3190 880 3190 900 3190" style="fill:transparent;stroke:black" /><rect x="966" y="3170" width="137" height="40" style="fill:green;stroke:black;stroke-width:1" /><text x="976" y="3180" font-size="8" style="fill:white">56.95156948786059</text><rect x="900" y="3220" width="200" height="40" style="fill:white;stroke:black;stroke-width:1" /><text x="910" y="3230" font-size="10" style="fill:blue">latitud</text><path d="M880 3190 C900 3190 880 3240 900 3240" style="fill:transparent;stroke:black" /><rect x="966" y="3220" width="137" height="40" style="fill:green;stroke:black;stroke-width:1" /><text x="976" y="3230" font-size="8" style="fill:white">24.113304299999996</text><rect x="900" y="3270" width="200" height="40" style="fill:white;stroke:black;stroke-width:1" /><text x="910" y="3280" font-size="10" style="fill:blue">altitud</text><path d="M880 3190 C900 3190 880 3290 900 3290" style="fill:transparent;stroke:black" /><rect x="680" y="3370" width="200" height="40" style="fill:white;stroke:black;stroke-width:1" /><text x="690" y="3380" font-size="10" style="fill:blue">fotos</text><path d="M660 3140 C680 3140 660 3390 680 3390" style="fill:transparent;stroke:black" /><rect x="900" y="3370" width="200" height="40" style="fill:white;stroke:black;stroke-width:1" /><text x="910" y="3380" font-size="10" style="fill:blue">foto</text><path d="M880 3390 C900 3390 880 3390 900 3390" style="fill:transparent;stroke:black" /><rect x="680" y="3470" width="200" height="40" style="fill:white;stroke:black;stroke-width:1" /><text x="690" y="3480" font-size="10" style="fill:blue">videos</text><path d="M660 3140 C680 3140 660 3490 680 3490" style="fill:transparent;stroke:black" /><rect x="900" y="3470" width="200" height="40" style="fill:white;stroke:black;stroke-width:1" /><text x="910" y="3480" font-size="10" style="fill:blue">video</text><path d="M880 3490 C900 3490 880 3490 900 3490" style="fill:transparent;stroke:black" /><rect x="460" y="3620" width="200" height="40" style="fill:white;stroke:black;stroke-width:1" /><text x="470" y="3630" font-size="10" style="fill:blue">hito</text><path d="M440 2390 C460 2390 440 3640 460 3640" style="fill:transparent;stroke:black" /><text x="470" y="3640" font-size="8" style="fill:black">nombre: Faro de Daugavgriva</text><rect x="680" y="3620" width="200" height="40" style="fill:white;stroke:black;stroke-width:1" /><text x="690" y="3630" font-size="10" style="fill:blue">descripcion</text><path d="M660 3640 C680 3640 660 3640 680 3640" style="fill:transparent;stroke:black" /><rect x="746" y="3620" width="137" height="40" style="fill:green;stroke:black;stroke-width:1" /><text x="756" y="3630" font-size="8" style="fill:white">Situado en la bahía de Riga desempeñó un papel importante en la Primera y Segunda Guerra Mundial.</text><rect x="680" y="3670" width="200" height="40" style="fill:white;stroke:black;stroke-width:1" /><text x="690" y="3680" font-size="10" style="fill:blue">coordenadas</text><path d="M660 3640 C680 3640 660 3690 680 3690" style="fill:transparent;stroke:black" /><rect x="900" y="3670" width="200" height="40" style="fill:white;stroke:black;stroke-width:1" /><text x="910" y="3680" font-size="10" style="fill:blue">longitud</text><path d="M880 3690 C900 3690 880 3690 900 3690" style="fill:transparent;stroke:black" /><rect x="966" y="3670" width="137" height="40" style="fill:green;stroke:black;stroke-width:1" /><text x="976" y="3680" font-size="8" style="fill:white">57,05949</text><rect x="900" y="3720" width="200" height="40" style="fill:white;stroke:black;stroke-width:1" /><text x="910" y="3730" font-size="10" style="fill:blue">latitud</text><path d="M880 3690 C900 3690 880 3740 900 3740" style="fill:transparent;stroke:black" /><rect x="966" y="3720" width="137" height="40" style="fill:green;stroke:black;stroke-width:1" /><text x="976" y="3730" font-size="8" style="fill:white">24,802157</text><rect x="900" y="3770" width="200" height="40" style="fill:white;stroke:black;stroke-width:1" /><text x="910" y="3780" font-size="10" style="fill:blue">altitud</text><path d="M880 3690 C900 3690 880 3790 900 3790" style="fill:transparent;stroke:black" /><rect x="680" y="3870" width="200" height="40" style="fill:white;stroke:black;stroke-width:1" /><text x="690" y="3880" font-size="10" style="fill:blue">fotos</text><path d="M660 3640 C680 3640 660 3890 680 3890" style="fill:transparent;stroke:black" /><rect x="900" y="3870" width="200" height="40" style="fill:white;stroke:black;stroke-width:1" /><text x="910" y="3880" font-size="10" style="fill:blue">foto</text><path d="M880 3890 C900 3890 880 3890 900 3890" style="fill:transparent;stroke:black" /><rect x="680" y="3970" width="200" height="40" style="fill:white;stroke:black;stroke-width:1" /><text x="690" y="3980" font-size="10" style="fill:blue">videos</text><path d="M660 3640 C680 3640 660 3990 680 3990" style="fill:transparent;stroke:black" /><rect x="900" y="3970" width="200" height="40" style="fill:white;stroke:black;stroke-width:1" /><text x="910" y="3980" font-size="10" style="fill:blue">video</text><path d="M880 3990 C900 3990 880 3990 900 3990" style="fill:transparent;stroke:black" /><rect x="460" y="4120" width="200" height="40" style="fill:white;stroke:black;stroke-width:1" /><text x="470" y="4130" font-size="10" style="fill:blue">hito</text><path d="M440 2390 C460 2390 440 4140 460 4140" style="fill:transparent;stroke:black" /><text x="470" y="4140" font-size="8" style="fill:black">nombre: Playa de Jūrmalas</text><rect x="680" y="4120" width="200" height="40" style="fill:white;stroke:black;stroke-width:1" /><text x="690" y="4130" font-size="10" style="fill:blue">descripcion</text><path d="M660 4140 C680 4140 660 4140 680 4140" style="fill:transparent;stroke:black" /><rect x="746" y="4120" width="137" height="40" style="fill:green;stroke:black;stroke-width:1" /><text x="756" y="4130" font-size="8" style="fill:white">Tiene una longitud de 33 km y está cubierta de una arena de cuarzo blanco. Las aguas costeras son poco profundas y el mar se encuentra en una calma absoluta.
			Una de las playas más concurrida de la costa báltica y tiene instalaciones con juegos para los niños, campos de voleivol, etc.</text><rect x="680" y="4170" width="200" height="40" style="fill:white;stroke:black;stroke-width:1" /><text x="690" y="4180" font-size="10" style="fill:blue">coordenadas</text><path d="M660 4140 C680 4140 660 4190 680 4190" style="fill:transparent;stroke:black" /><rect x="900" y="4170" width="200" height="40" style="fill:white;stroke:black;stroke-width:1" /><text x="910" y="4180" font-size="10" style="fill:blue">longitud</text><path d="M880 4190 C900 4190 880 4190 900 4190" style="fill:transparent;stroke:black" /><rect x="966" y="4170" width="137" height="40" style="fill:green;stroke:black;stroke-width:1" /><text x="976" y="4180" font-size="8" style="fill:white">﻿56.9752346438177 </text><rect x="900" y="4220" width="200" height="40" style="fill:white;stroke:black;stroke-width:1" /><text x="910" y="4230" font-size="10" style="fill:blue">latitud</text><path d="M880 4190 C900 4190 880 4240 900 4240" style="fill:transparent;stroke:black" /><rect x="966" y="4220" width="137" height="40" style="fill:green;stroke:black;stroke-width:1" /><text x="976" y="4230" font-size="8" style="fill:white">23.78557283863731</text><rect x="900" y="4270" width="200" height="40" style="fill:white;stroke:black;stroke-width:1" /><text x="910" y="4280" font-size="10" style="fill:blue">altitud</text><path d="M880 4190 C900 4190 880 4290 900 4290" style="fill:transparent;stroke:black" /><rect x="680" y="4370" width="200" height="40" style="fill:white;stroke:black;stroke-width:1" /><text x="690" y="4380" font-size="10" style="fill:blue">fotos</text><path d="M660 4140 C680 4140 660 4390 680 4390" style="fill:transparent;stroke:black" /><rect x="900" y="4370" width="200" height="40" style="fill:white;stroke:black;stroke-width:1" /><text x="910" y="4380" font-size="10" style="fill:blue">foto</text><path d="M880 4390 C900 4390 880 4390 900 4390" style="fill:transparent;stroke:black" /><rect x="680" y="4470" width="200" height="40" style="fill:white;stroke:black;stroke-width:1" /><text x="690" y="4480" font-size="10" style="fill:blue">videos</text><path d="M660 4140 C680 4140 660 4490 680 4490" style="fill:transparent;stroke:black" /><rect x="900" y="4470" width="200" height="40" style="fill:white;stroke:black;stroke-width:1" /><text x="910" y="4480" font-size="10" style="fill:blue">video</text><path d="M880 4490 C900 4490 880 4490 900 4490" style="fill:transparent;stroke:black" /><rect x="240" y="4670" width="200" height="40" style="fill:white;stroke:black;stroke-width:1" /><text x="250" y="4680" font-size="10" style="fill:blue">ruta</text><path d="M220 40 C240 40 220 4690 240 4690" style="fill:transparent;stroke:black" /><text x="250" y="4690" font-size="8" style="fill:black">nombre: Paseo en bici por el casco antiguo de Riga</text><text x="250" y="4700" font-size="8" style="fill:black">tipo: Bicicleta</text><rect x="460" y="4670" width="200" height="40" style="fill:white;stroke:black;stroke-width:1" /><text x="470" y="4680" font-size="10" style="fill:blue">fechaInicio</text><path d="M440 4690 C460 4690 440 4690 460 4690" style="fill:transparent;stroke:black" /><rect x="526" y="4670" width="137" height="40" style="fill:green;stroke:black;stroke-width:1" /><text x="536" y="4680" font-size="8" style="fill:white">07-06-2023</text><rect x="460" y="4720" width="200" height="40" style="fill:white;stroke:black;stroke-width:1" /><text x="470" y="4730" font-size="10" style="fill:blue">horaInicio</text><path d="M440 4690 C460 4690 440 4740 460 4740" style="fill:transparent;stroke:black" /><rect x="526" y="4720" width="137" height="40" style="fill:green;stroke:black;stroke-width:1" /><text x="536" y="4730" font-size="8" style="fill:white">10:00</text><rect x="460" y="4770" width="200" height="40" style="fill:white;stroke:black;stroke-width:1" /><text x="470" y="4780" font-size="10" style="fill:blue">duracion</text><path d="M440 4690 C460 4690 440 4790 460 4790" style="fill:transparent;stroke:black" /><rect x="526" y="4770" width="137" height="40" style="fill:green;stroke:black;stroke-width:1" /><text x="536" y="4780" font-size="8" style="fill:white">04h 50min</text><rect x="460" y="4820" width="200" height="40" style="fill:white;stroke:black;stroke-width:1" /><text x="470" y="4830" font-size="10" style="fill:blue">agencia</text><path d="M440 4690 C460 4690 440 4840 460 4840" style="fill:transparent;stroke:black" /><rect x="526" y="4820" width="137" height="40" style="fill:green;stroke:black;stroke-width:1" /><text x="536" y="4830" font-size="8" style="fill:white">Koomot</text><rect x="460" y="4870" width="200" height="40" style="fill:white;stroke:black;stroke-width:1" /><text x="470" y="4880" font-size="10" style="fill:blue">descripcion</text><path d="M440 4690 C460 4690 440 4890 460 4890" style="fill:transparent;stroke:black" /><rect x="526" y="4870" width="137" height="40" style="fill:green;stroke:black;stroke-width:1" /><text x="536" y="4880" font-size="8" style="fill:white"> Paseo en bici por el hermoso casco antiguo y enclave natural desde Vagonu a Riga.</text><rect x="460" y="4920" width="200" height="40" style="fill:white;stroke:black;stroke-width:1" /><text x="470" y="4930" font-size="10" style="fill:blue">personas</text><path d="M440 4690 C460 4690 440 4940 460 4940" style="fill:transparent;stroke:black" /><rect x="526" y="4920" width="137" height="40" style="fill:green;stroke:black;stroke-width:1" /><text x="536" y="4930" font-size="8" style="fill:white">Buena forma física. Que sepan andar bien en bici.</text><rect x="460" y="4970" width="200" height="40" style="fill:white;stroke:black;stroke-width:1" /><text x="470" y="4980" font-size="10" style="fill:blue">lugarInicio</text><path d="M440 4690 C460 4690 440 4990 460 4990" style="fill:transparent;stroke:black" /><rect x="526" y="4970" width="137" height="40" style="fill:green;stroke:black;stroke-width:1" /><text x="536" y="4980" font-size="8" style="fill:white">Estación de tren de Vagonu</text><rect x="460" y="5020" width="200" height="40" style="fill:white;stroke:black;stroke-width:1" /><text x="470" y="5030" font-size="10" style="fill:blue">direccionInicio</text><path d="M440 4690 C460 4690 440 5040 460 5040" style="fill:transparent;stroke:black" /><rect x="526" y="5020" width="137" height="40" style="fill:green;stroke:black;stroke-width:1" /><text x="536" y="5030" font-size="8" style="fill:white">Vagonu parks, Dzelzceļa stacija, Mazā Matīsa iela 2, Latgales priekšpilsēta, Rīga, LV-1009, Letonia</text><rect x="460" y="5070" width="200" height="40" style="fill:white;stroke:black;stroke-width:1" /><text x="470" y="5080" font-size="10" style="fill:blue">coordenadas</text><path d="M440 4690 C460 4690 440 5090 460 5090" style="fill:transparent;stroke:black" /><rect x="680" y="5070" width="200" height="40" style="fill:white;stroke:black;stroke-width:1" /><text x="690" y="5080" font-size="10" style="fill:blue">longitud</text><path d="M660 5090 C680 5090 660 5090 680 5090" style="fill:transparent;stroke:black" /><rect x="746" y="5070" width="137" height="40" style="fill:green;stroke:black;stroke-width:1" /><text x="756" y="5080" font-size="8" style="fill:white">56.94448826737883</text><rect x="680" y="5120" width="200" height="40" style="fill:white;stroke:black;stroke-width:1" /><text x="690" y="5130" font-size="10" style="fill:blue">latitud</text><path d="M660 5090 C680 5090 660 5140 680 5140" style="fill:transparent;stroke:black" /><rect x="746" y="5120" width="137" height="40" style="fill:green;stroke:black;stroke-width:1" /><text x="756" y="5130" font-size="8" style="fill:white">24.1562069865055</text><rect x="680" y="5170" width="200" height="40" style="fill:white;stroke:black;stroke-width:1" /><text x="690" y="5180" font-size="10" style="fill:blue">altitud</text><path d="M660 5090 C680 5090 660 5190 680 5190" style="fill:transparent;stroke:black" /><rect x="460" y="5270" width="200" height="40" style="fill:white;stroke:black;stroke-width:1" /><text x="470" y="5280" font-size="10" style="fill:blue">referencias</text><path d="M440 4690 C460 4690 440 5290 460 5290" style="fill:transparent;stroke:black" /><rect x="680" y="5270" width="200" height="40" style="fill:white;stroke:black;stroke-width:1" /><text x="690" y="5280" font-size="10" style="fill:blue">referencia</text><path d="M660 5290 C680 5290 660 5290 680 5290" style="fill:transparent;stroke:black" /><rect x="746" y="5270" width="137" height="40" style="fill:green;stroke:black;stroke-width:1" /><text x="756" y="5280" font-size="8" style="fill:white">https://www.komoot.com/es-es/smarttour/16984266</text><rect x="460" y="5370" width="200" height="40" style="fill:white;stroke:black;stroke-width:1" /><text x="470" y="5380" font-size="10" style="fill:blue">recomendacion</text><path d="M440 4690 C460 4690 440 5390 460 5390" style="fill:transparent;stroke:black" /><rect x="526" y="5370" width="137" height="40" style="fill:green;stroke:black;stroke-width:1" /><text x="536" y="5380" font-size="8" style="fill:white">7</text><rect x="460" y="5420" width="200" height="40" style="fill:white;stroke:black;stroke-width:1" /><text x="470" y="5430" font-size="10" style="fill:blue">hito</text><path d="M440 4690 C460 4690 440 5440 460 5440" style="fill:transparent;stroke:black" /><text x="470" y="5440" font-size="8" style="fill:black">nombre: Monumento a la Libertad (Brīvības piemineklis)</text><rect x="680" y="5420" width="200" height="40" style="fill:white;stroke:black;stroke-width:1" /><text x="690" y="5430" font-size="10" style="fill:blue">descripcion</text><path d="M660 5440 C680 5440 660 5440 680 5440" style="fill:transparent;stroke:black" /><rect x="746" y="5420" width="137" height="40" style="fill:green;stroke:black;stroke-width:1" /><text x="756" y="5430" font-size="8" style="fill:white">Monumento construido en honor a los soldados que murieron durante la Guerra de Independencia de Letonia.</text><rect x="680" y="5470" width="200" height="40" style="fill:white;stroke:black;stroke-width:1" /><text x="690" y="5480" font-size="10" style="fill:blue">coordenadas</text><path d="M660 5440 C680 5440 660 5490 680 5490" style="fill:transparent;stroke:black" /><rect x="900" y="5470" width="200" height="40" style="fill:white;stroke:black;stroke-width:1" /><text x="910" y="5480" font-size="10" style="fill:blue">longitud</text><path d="M880 5490 C900 5490 880 5490 900 5490" style="fill:transparent;stroke:black" /><rect x="966" y="5470" width="137" height="40" style="fill:green;stroke:black;stroke-width:1" /><text x="976" y="5480" font-size="8" style="fill:white">56.95156948786059</text><rect x="900" y="5520" width="200" height="40" style="fill:white;stroke:black;stroke-width:1" /><text x="910" y="5530" font-size="10" style="fill:blue">latitud</text><path d="M880 5490 C900 5490 880 5540 900 5540" style="fill:transparent;stroke:black" /><rect x="966" y="5520" width="137" height="40" style="fill:green;stroke:black;stroke-width:1" /><text x="976" y="5530" font-size="8" style="fill:white">24.113304299999996</text><rect x="900" y="5570" width="200" height="40" style="fill:white;stroke:black;stroke-width:1" /><text x="910" y="5580" font-size="10" style="fill:blue">altitud</text><path d="M880 5490 C900 5490 880 5590 900 5590" style="fill:transparent;stroke:black" /><rect x="680" y="5670" width="200" height="40" style="fill:white;stroke:black;stroke-width:1" /><text x="690" y="5680" font-size="10" style="fill:blue">fotos</text><path d="M660 5440 C680 5440 660 5690 680 5690" style="fill:transparent;stroke:black" /><rect x="900" y="5670" width="200" height="40" style="fill:white;stroke:black;stroke-width:1" /><text x="910" y="5680" font-size="10" style="fill:blue">foto</text><path d="M880 5690 C900 5690 880 5690 900 5690" style="fill:transparent;stroke:black" /><rect x="680" y="5770" width="200" height="40" style="fill:white;stroke:black;stroke-width:1" /><text x="690" y="5780" font-size="10" style="fill:blue">videos</text><path d="M660 5440 C680 5440 660 5790 680 5790" style="fill:transparent;stroke:black" /><rect x="900" y="5770" width="200" height="40" style="fill:white;stroke:black;stroke-width:1" /><text x="910" y="5780" font-size="10" style="fill:blue">video</text><path d="M880 5790 C900 5790 880 5790 900 5790" style="fill:transparent;stroke:black" /><rect x="460" y="5920" width="200" height="40" style="fill:white;stroke:black;stroke-width:1" /><text x="470" y="5930" font-size="10" style="fill:blue">hito</text><path d="M440 4690 C460 4690 440 5940 460 5940" style="fill:transparent;stroke:black" /><text x="470" y="5940" font-size="8" style="fill:black">nombre: Faro de Daugavgriva</text><rect x="680" y="5920" width="200" height="40" style="fill:white;stroke:black;stroke-width:1" /><text x="690" y="5930" font-size="10" style="fill:blue">descripcion</text><path d="M660 5940 C680 5940 660 5940 680 5940" style="fill:transparent;stroke:black" /><rect x="746" y="5920" width="137" height="40" style="fill:green;stroke:black;stroke-width:1" /><text x="756" y="5930" font-size="8" style="fill:white">Situado en la bahía de Riga desempeñó un papel importante en la Primera y Segunda Guerra Mundial.</text><rect x="680" y="5970" width="200" height="40" style="fill:white;stroke:black;stroke-width:1" /><text x="690" y="5980" font-size="10" style="fill:blue">coordenadas</text><path d="M660 5940 C680 5940 660 5990 680 5990" style="fill:transparent;stroke:black" /><rect x="900" y="5970" width="200" height="40" style="fill:white;stroke:black;stroke-width:1" /><text x="910" y="5980" font-size="10" style="fill:blue">longitud</text><path d="M880 5990 C900 5990 880 5990 900 5990" style="fill:transparent;stroke:black" /><rect x="966" y="5970" width="137" height="40" style="fill:green;stroke:black;stroke-width:1" /><text x="976" y="5980" font-size="8" style="fill:white">57,05949</text><rect x="900" y="6020" width="200" height="40" style="fill:white;stroke:black;stroke-width:1" /><text x="910" y="6030" font-size="10" style="fill:blue">latitud</text><path d="M880 5990 C900 5990 880 6040 900 6040" style="fill:transparent;stroke:black" /><rect x="966" y="6020" width="137" height="40" style="fill:green;stroke:black;stroke-width:1" /><text x="976" y="6030" font-size="8" style="fill:white">24,802157</text><rect x="900" y="6070" width="200" height="40" style="fill:white;stroke:black;stroke-width:1" /><text x="910" y="6080" font-size="10" style="fill:blue">altitud</text><path d="M880 5990 C900 5990 880 6090 900 6090" style="fill:transparent;stroke:black" /><rect x="680" y="6170" width="200" height="40" style="fill:white;stroke:black;stroke-width:1" /><text x="690" y="6180" font-size="10" style="fill:blue">fotos</text><path d="M660 5940 C680 5940 660 6190 680 6190" style="fill:transparent;stroke:black" /><rect x="900" y="6170" width="200" height="40" style="fill:white;stroke:black;stroke-width:1" /><text x="910" y="6180" font-size="10" style="fill:blue">foto</text><path d="M880 6190 C900 6190 880 6190 900 6190" style="fill:transparent;stroke:black" /><rect x="680" y="6270" width="200" height="40" style="fill:white;stroke:black;stroke-width:1" /><text x="690" y="6280" font-size="10" style="fill:blue">videos</text><path d="M660 5940 C680 5940 660 6290 680 6290" style="fill:transparent;stroke:black" /><rect x="900" y="6270" width="200" height="40" style="fill:white;stroke:black;stroke-width:1" /><text x="910" y="6280" font-size="10" style="fill:blue">video</text><path d="M880 6290 C900 6290 880 6290 900 6290" style="fill:transparent;stroke:black" /><rect x="460" y="6420" width="200" height="40" style="fill:white;stroke:black;stroke-width:1" /><text x="470" y="6430" font-size="10" style="fill:blue">hito</text><path d="M440 4690 C460 4690 440 6440 460 6440" style="fill:transparent;stroke:black" /><text x="470" y="6440" font-size="8" style="fill:black">nombre: Playa de Jūrmalas</text><rect x="680" y="6420" width="200" height="40" style="fill:white;stroke:black;stroke-width:1" /><text x="690" y="6430" font-size="10" style="fill:blue">descripcion</text><path d="M660 6440 C680 6440 660 6440 680 6440" style="fill:transparent;stroke:black" /><rect x="746" y="6420" width="137" height="40" style="fill:green;stroke:black;stroke-width:1" /><text x="756" y="6430" font-size="8" style="fill:white">Tiene una longitud de 33 km y está cubierta de una arena de cuarzo blanco. Las aguas costeras son poco profundas y el mar se encuentra en una calma absoluta.
			Una de las playas más concurrida de la costa báltica y tiene instalaciones con juegos para los niños, campos de voleivol, etc.</text><rect x="680" y="6470" width="200" height="40" style="fill:white;stroke:black;stroke-width:1" /><text x="690" y="6480" font-size="10" style="fill:blue">coordenadas</text><path d="M660 6440 C680 6440 660 6490 680 6490" style="fill:transparent;stroke:black" /><rect x="900" y="6470" width="200" height="40" style="fill:white;stroke:black;stroke-width:1" /><text x="910" y="6480" font-size="10" style="fill:blue">longitud</text><path d="M880 6490 C900 6490 880 6490 900 6490" style="fill:transparent;stroke:black" /><rect x="966" y="6470" width="137" height="40" style="fill:green;stroke:black;stroke-width:1" /><text x="976" y="6480" font-size="8" style="fill:white">﻿56.9752346438177 </text><rect x="900" y="6520" width="200" height="40" style="fill:white;stroke:black;stroke-width:1" /><text x="910" y="6530" font-size="10" style="fill:blue">latitud</text><path d="M880 6490 C900 6490 880 6540 900 6540" style="fill:transparent;stroke:black" /><rect x="966" y="6520" width="137" height="40" style="fill:green;stroke:black;stroke-width:1" /><text x="976" y="6530" font-size="8" style="fill:white">23.78557283863731</text><rect x="900" y="6570" width="200" height="40" style="fill:white;stroke:black;stroke-width:1" /><text x="910" y="6580" font-size="10" style="fill:blue">altitud</text><path d="M880 6490 C900 6490 880 6590 900 6590" style="fill:transparent;stroke:black" /><rect x="680" y="6670" width="200" height="40" style="fill:white;stroke:black;stroke-width:1" /><text x="690" y="6680" font-size="10" style="fill:blue">fotos</text><path d="M660 6440 C680 6440 660 6690 680 6690" style="fill:transparent;stroke:black" /><rect x="900" y="6670" width="200" height="40" style="fill:white;stroke:black;stroke-width:1" /><text x="910" y="6680" font-size="10" style="fill:blue">foto</text><path d="M880 6690 C900 6690 880 6690 900 6690" style="fill:transparent;stroke:black" /><rect x="680" y="6770" width="200" height="40" style="fill:white;stroke:black;stroke-width:1" /><text x="690" y="6780" font-size="10" style="fill:blue">videos</text><path d="M660 6440 C680 6440 660 6790 680 6790" style="fill:transparent;stroke:black" /><rect x="900" y="6770" width="200" height="40" style="fill:white;stroke:black;stroke-width:1" /><text x="910" y="6780" font-size="10" style="fill:blue">video</text><path d="M880 6790 C900 6790 880 6790 900 6790" style="fill:transparent;stroke:black" /></svg>